<?xml version="1.0" standalone="no"?>
<!DOCTYPE svg PUBLIC "-//W3C//DTD SVG 20010904//EN"
 "http://www.w3.org/TR/2001/REC-SVG-20010904/DTD/svg10.dtd">
<svg version="1.0" xmlns="http://www.w3.org/2000/svg"
 width="300.000000pt" height="300.000000pt" viewBox="0 0 300.000000 300.000000"
 preserveAspectRatio="xMidYMid meet">
<metadata>
Created by potrace 1.11, written by Peter Selinger 2001-2013
</metadata>
<g transform="translate(0.000000,300.000000) scale(0.100000,-0.100000)"
fill="#000000" stroke="none">
<path d="M1675 2335 c-130 -31 -169 -46 -375 -144 -234 -112 -468 -200 -578
-217 -96 -15 -194 -41 -247 -65 -27 -12 -53 -23 -57 -23 -3 -1 -27 -17 -53
-36 -78 -59 -130 -132 -154 -222 -23 -86 -20 -141 14 -254 5 -17 0 -23 -25
-34 -17 -7 -51 -34 -76 -60 -31 -32 -58 -50 -80 -55 -19 -3 -34 -12 -34 -19 0
-16 47 -60 85 -79 38 -19 129 -19 167 0 32 17 101 83 93 91 -3 3 0 11 6 18 20
25 19 109 -3 181 -35 117 -20 203 51 282 33 37 41 26 20 -26 -16 -39 -13 -142
6 -197 9 -25 32 -73 52 -106 39 -67 50 -134 28 -176 -7 -13 -31 -38 -55 -55
-39 -28 -42 -33 -34 -62 9 -40 9 -137 -1 -197 -12 -72 -10 -172 4 -212 l13
-38 109 0 c60 0 109 2 109 3 0 2 -7 18 -15 34 -21 42 -26 113 -10 149 20 49
72 90 189 149 60 31 127 70 147 86 43 34 55 31 100 -18 33 -35 52 -70 56 -103
6 -50 14 -70 26 -70 41 0 147 -149 147 -207 0 -23 2 -23 125 -23 69 0 125 4
125 9 0 4 -8 19 -18 32 -24 31 -83 129 -78 129 2 0 -2 16 -8 35 -7 19 -10 54
-7 77 l6 43 55 -2 c30 -1 67 -2 83 -2 15 -1 27 -7 27 -13 0 -35 56 -125 110
-180 62 -61 95 -110 83 -122 -4 -3 51 -6 120 -6 70 0 127 4 127 8 0 5 -9 26
-19 48 -26 54 -44 151 -29 160 4 3 6 10 3 15 -8 12 4 49 16 49 5 0 9 -7 9 -16
0 -20 49 -83 118 -152 30 -30 58 -67 64 -83 l10 -29 124 0 125 0 -12 23 c-7
12 -15 24 -18 27 -13 11 -102 176 -109 203 -1 4 -2 8 -3 10 -6 20 -11 51 -16
91 -4 44 -2 51 23 73 l27 23 16 -43 c27 -71 32 -77 85 -78 31 -2 51 2 56 11 5
8 7 17 5 20 -2 3 7 25 18 50 22 44 23 45 72 46 28 0 55 1 62 2 14 2 123 146
123 162 0 5 4 10 8 10 11 0 110 148 142 210 34 67 48 123 48 199 0 82 -24 142
-83 204 -36 38 -139 97 -169 97 -9 0 -16 4 -16 8 0 9 -50 15 -137 16 -35 1
-63 5 -63 9 0 5 -4 6 -8 3 -5 -3 -16 11 -26 31 -18 38 -104 153 -115 153 -3 0
-22 14 -41 31 -48 42 -181 104 -264 123 -103 22 -288 18 -401 -9z m-517 -453
c-2 -117 89 -341 197 -481 38 -50 149 -155 198 -186 31 -21 57 -40 57 -42 0
-5 -115 8 -185 21 -65 12 -80 16 -129 32 -28 10 -52 17 -53 16 -6 -3 -183 91
-183 98 0 4 -11 12 -25 18 -14 6 -25 7 -25 2 0 -5 -12 -22 -26 -37 -14 -15
-34 -37 -43 -48 -18 -23 -131 -109 -131 -100 0 3 -10 0 -22 -7 -13 -7 -35 -14
-49 -15 -22 -3 -25 0 -23 19 1 13 3 23 4 23 7 0 4 117 -2 121 -5 3 -6 9 -3 14
6 10 -15 61 -69 170 -17 36 -31 76 -30 90 9 108 30 142 109 180 33 16 71 31
85 34 101 18 305 79 324 97 13 11 25 2 24 -19z m1609 -116 c3 -3 -5 -10 -18
-15 -58 -22 -81 -76 -62 -141 17 -58 5 -96 -34 -112 -68 -27 -122 8 -128 82
-6 90 57 168 153 188 39 9 80 8 89 -2z"/>
</g>
</svg>
